<svg width="20" height="19" viewBox="0 0 20 19" fill="none" xmlns="http://www.w3.org/2000/svg">
<path d="M7 8.00989C9.20914 8.00989 11 6.21903 11 4.00989C11 1.80075 9.20914 0.0098877 7 0.0098877C4.79086 0.0098877 3 1.80075 3 4.00989C3 6.21903 4.79086 8.00989 7 8.00989Z" fill="#212B36"/>
<path d="M15 10.0099C16.6569 10.0099 18 8.66674 18 7.00989C18 5.35303 16.6569 4.00989 15 4.00989C13.3431 4.00989 12 5.35303 12 7.00989C12 8.66674 13.3431 10.0099 15 10.0099Z" fill="#212B36"/>
<path d="M19 17.0099C19.5523 17.0099 20 16.5622 20 16.0099C19.9984 14.1032 18.9125 12.3634 17.2003 11.5244C15.4882 10.6853 13.4479 10.893 11.94 12.0599C9.93708 10.0648 6.93071 9.47037 4.31923 10.553C1.70774 11.6357 0.0038243 14.1829 0 17.0099C0 17.5622 0.447715 18.0099 1 18.0099H13C13.5523 18.0099 14 17.5622 14 17.0099" fill="#212B36"/>
</svg>
